<?xml version="1.0" encoding="UTF-8"?>
<svg width="305px" height="307px" viewBox="0 0 305 307" version="1.1" xmlns="http://www.w3.org/2000/svg" xmlns:xlink="http://www.w3.org/1999/xlink">
    <!-- Generator: Sketch 52.2 (67145) - http://www.bohemiancoding.com/sketch -->
    <title>full_logo</title>
    <desc>Created with Sketch.</desc>
    <g id="Page-2" stroke="none" stroke-width="1" fill="none" fill-rule="evenodd">
        <g id="full_logo">
            <ellipse id="Oval" fill="#FFFFFF" cx="152.5" cy="153.5" rx="152.5" ry="153.5"></ellipse>
            <g id="ivan_logo" transform="translate(36.000000, 94.000000)" fill="#000000">
                <rect id="Rectangle" transform="translate(67.000000, 69.000000) rotate(90.000000) translate(-67.000000, -69.000000) " x="60" y="45" width="14" height="48"></rect>
                <rect id="Rectangle" x="0" y="1" width="14" height="108.4"></rect>
                <rect id="Rectangle" x="138" y="0.2" width="14" height="109"></rect>
                <rect id="Rectangle" x="16" y="1" width="14" height="108.4"></rect>
                <rect id="Rectangle" x="77" y="0" width="14" height="109"></rect>
                <rect id="Rectangle" transform="translate(53.562178, 54.801270) rotate(30.000000) translate(-53.562178, -54.801270) " x="46.5621778" y="-4.19872981" width="14" height="118"></rect>
                <rect id="Rectangle" transform="translate(114.562178, 54.595499) scale(-1, 1) rotate(30.000000) translate(-114.562178, -54.595499) " x="107.562178" y="-4.40450118" width="14" height="118"></rect>
            </g>
            <g id="Heibi" transform="translate(178.500000, 137.000000) scale(-1, -1) rotate(90.000000) translate(-178.500000, -137.000000) translate(67.500000, 38.500000)">
                <g id="I(middle)" transform="translate(126.000000, 119.000000)" fill="#000000">
                    <rect id="Rectangle" x="0" y="13" width="30" height="6"></rect>
                    <rect id="Rectangle" transform="translate(27.000000, 9.500000) rotate(90.000000) translate(-27.000000, -9.500000) " x="17.5" y="6.5" width="19" height="6"></rect>
                    <circle id="Oval" cx="6.5" cy="26.5" r="3.5"></circle>
                    <circle id="Oval" cx="18.5" cy="26.5" r="3.5"></circle>
                </g>
                <g id="B" transform="translate(85.000000, 119.000000)" fill="#000000">
                    <rect id="Rectangle" x="0" y="13" width="42" height="6"></rect>
                    <rect id="Rectangle" transform="translate(39.000000, 9.500000) rotate(90.000000) translate(-39.000000, -9.500000) " x="29.5" y="6.5" width="19" height="6"></rect>
                    <circle id="Oval" cx="24.5" cy="26.5" r="3.5"></circle>
                </g>
                <g id="H" transform="translate(156.000000, 83.000000)">
                    <path d="M47.5,-17.4726184 L47.5,-11.2975019 C38.2203351,-8.0140893 31.5,1.62284082 31.5,13 C31.5,24.3771592 38.2203351,34.0140893 47.5,37.2975019 L47.5,41.4726184 C47.1684366,41.4908109 46.8350549,41.5 46.5,41.5 C33.7974508,41.5 23.5,28.2924001 23.5,12 C23.5,-4.29240012 33.7974508,-17.5 46.5,-17.5 C46.8350549,-17.5 47.1684366,-17.4908109 47.5,-17.4726184 Z" id="Combined-Shape" fill="#000000" transform="translate(35.500000, 12.000000) rotate(90.000000) translate(-35.500000, -12.000000) "></path>
                    <path d="M35,54.996763 L35,46.9956669 C46.1587806,46.8021038 55.5622985,40.143415 58.7975019,31 L64.9726184,31 C64.9908109,31.3315634 65,31.6649451 65,32 C65,44.7025492 51.7924001,55 35.5,55 C35.3330056,55 35.1663353,54.9989182 35,54.996763 Z" id="Combined-Shape" fill="#000000"></path>
                    <rect id="Rectangle" fill="#000000" x="0" y="49" width="36" height="6"></rect>
                    <rect id="Rectangle" fill="#000000" transform="translate(62.500000, 27.500000) rotate(90.000000) translate(-62.500000, -27.500000) " x="59" y="25" width="7" height="5"></rect>
                    <ellipse id="Oval" fill="#000000" cx="61" cy="27.5" rx="5" ry="13.5"></ellipse>
                    <ellipse id="Oval" fill="#FFFFFF" cx="34.5" cy="28.5" rx="26.5" ry="20.5"></ellipse>
                    <path d="M36.5,55 C27.3873016,55 20,47.6126984 20,38.5 C20,29.3873016 27.3873016,22 36.5,22 C45.6126984,22 53,29.3873016 53,38.5 C53,47.6126984 45.6126984,55 36.5,55 Z M35.5,49 C41.8512746,49 47,43.8512746 47,37.5 C47,31.1487254 41.8512746,26 35.5,26 C29.1487254,26 24,31.1487254 24,37.5 C24,43.8512746 29.1487254,49 35.5,49 Z" id="Combined-Shape" fill="#000000"></path>
                </g>
                <path d="M83,167.171573 C75.905158,164.12217 71,157.57936 71,150 C71,139.50659 80.4020203,131 92,131 C98.0397781,131 103.484029,133.306921 107.315067,137 L99.436048,137 C97.5940438,136.354107 95.5925103,136 93.5,136 C84.3873016,136 77,142.715729 77,151 C77,155.65801 79.33549,159.820126 83,162.571376 L83,167.171573 Z" id="Combined-Shape" fill="#000000"></path>
                <path d="M68.2528071,191.701977 C61.0778532,189.148757 56.157815,183.908218 56.157815,177.858061 C56.157815,169.297647 66.0075505,162.358061 78.157815,162.358061 C84.2244861,162.358061 89.7176258,164.088128 93.6975208,166.886192 L82.2741051,166.886192 C81.3225699,166.771777 80.3449654,166.712215 79.3478847,166.712215 C69.6829016,166.712215 61.8478847,172.308656 61.8478847,179.212215 C61.8478847,183.107617 64.3424699,186.586846 68.2528071,188.879308 L68.2528071,191.701977 Z" id="Combined-Shape" fill="#000000" transform="translate(74.927668, 177.030019) rotate(165.000000) translate(-74.927668, -177.030019) "></path>
                <path d="M83,167.171573 C84.3081398,167.794643 85.3506258,168.672641 86.1274579,169.805564 C86.90429,170.938487 87.4612297,172.393069 87.7982771,174.16931 L87.798265,168.00124 L83,166 L83,167.171573 Z" id="Path" fill="#000000"></path>
                <g id="Group" transform="translate(22.500000, 94.060038) rotate(90.000000) translate(-22.500000, -94.060038) translate(-71.500000, 71.560038)">
                    <ellipse id="Oval" fill="#000000" cx="94.4399621" cy="20.5" rx="93.5" ry="14.5"></ellipse>
                    <ellipse id="Oval" fill="#FFFFFF" cx="94.4399621" cy="14.5" rx="93.5" ry="14.5"></ellipse>
                    <ellipse id="Oval" fill="#000000" cx="126.939962" cy="41.5" rx="3" ry="3.5"></ellipse>
                    <ellipse id="Oval" fill="#000000" cx="57.9399621" cy="41.5" rx="3" ry="3.5"></ellipse>
                </g>
            </g>
            <path d="M252.358848,160.766351 C248.951645,166.754543 246.663488,177.85335 246.663488,190.555439 C246.663488,209.609263 251.812213,225.055439 258.163488,225.055439 C264.514763,225.055439 269.663488,209.609263 269.663488,190.555439 C269.663488,177.106886 267.098493,165.455592 263.356078,159.764287 C272.846942,163.128093 279.966631,177.177574 279.966631,193.998543 C279.966631,213.328509 270.56461,228.998543 258.966631,228.998543 C247.368651,228.998543 237.966631,213.328509 237.966631,193.998543 C237.966631,178.516143 243.998272,165.381686 252.358848,160.766351 Z" id="Combined-Shape" fill="#000000" transform="translate(258.966631, 194.381415) rotate(5.000000) translate(-258.966631, -194.381415) "></path>
            <ellipse id="Oval" fill="#FFFFFF" cx="256.5" cy="191.423077" rx="16.5" ry="32.4230769"></ellipse>
            <path d="M232.873777,177.262004 C234.33861,177.143314 235.424678,176.999539 236.131981,176.830679 C236.839283,176.661819 237.79529,176.318074 239,175.799443 L242.250591,173.883362 L244.075703,172.258055 L263.368958,217.35449 C262.144307,219.884627 260.426946,221.815711 258.216873,223.147744 C256.0068,224.479778 252.728184,225.597756 248.381025,226.50168 L226.388206,217.696297 L232.873777,177.262004 Z" id="Path-2" fill="#FFFFFF"></path>
            <path d="M254.80914,154.799342 L279.493566,181.303838 C278.72025,178.595756 278.133089,176.697422 277.732085,175.608834 C276.178172,171.390495 274.678291,168.649786 273.477048,166.906626 C272.257085,165.136301 270.524442,162.733514 268.455906,160.876437 C266.286608,158.928899 263.776611,157.548308 262.368958,156.659752 C260.535676,155.502525 258.015736,154.882388 254.80914,154.799342 Z" id="Path-3" fill="#000000"></path>
            <path d="M278.536249,197 C278.103965,200.495025 277.724732,202.969636 277.39855,204.423835 C276.142767,210.022427 274.700489,213.882235 273.732085,216.326786 C272.386377,219.723772 270.271449,222.695591 267.387304,225.242241 L267.387304,219.810014 L278.536249,197 Z" id="Path-4" fill="#000000"></path>
            <path d="M261.818591,222.117513 C262.494419,222.284875 261.755976,222.685842 259.603261,223.320412 C257.450546,223.954982 252.674325,225.179611 245.2746,226.994297 L258.935745,225.242241 L261.818591,222.117513 Z" id="Path-5" fill="#000000"></path>
            <path d="M259.011597,159.36467 L262.459329,163.467798 L268.877764,169.887567 C266.642111,166.28561 264.805842,163.778052 263.368958,162.364894 C261.932073,160.951736 260.479619,159.951661 259.011597,159.36467 Z" id="Path-6" fill="#FFFFFF"></path>
            <path d="M279.493566,181.193787 C279.509588,181.301659 279.525782,181.444142 279.542149,181.621235 C279.554969,181.759945 279.559379,182.015931 279.578893,182.22707 C279.635777,182.842559 279.69183,183.449055 279.747052,184.046559 L279.029887,182.007172 L279.104294,179.95546 C279.160995,180.113485 279.212595,180.270519 279.259094,180.426559 C279.291953,180.536825 279.353875,180.698032 279.41835,180.944504 C279.436194,181.012717 279.461266,181.095812 279.493566,181.193787 Z" id="Path-7" fill="#000000"></path>
        </g>
    </g>
</svg>