<?xml version="1.0" encoding="UTF-8"?>
<svg width="347px" height="381px" viewBox="0 0 347 381" version="1.1" xmlns="http://www.w3.org/2000/svg" xmlns:xlink="http://www.w3.org/1999/xlink">
    <!-- Generator: Sketch 52.2 (67145) - http://www.bohemiancoding.com/sketch -->
    <title>science</title>
    <desc>Created with Sketch.</desc>
    <g id="Page-2" stroke="none" stroke-width="1" fill="none" fill-rule="evenodd">
        <g id="science">
            <path d="M173.772548,23.197 C156.770548,23.197 139.865548,41.592 127.391548,73.663 C114.387548,107.103 107.224548,151.625 107.224548,199.027 C107.224548,246.431 114.387548,290.953 127.391548,324.392 C139.865548,356.464 156.770548,374.859 173.772548,374.859 C190.774548,374.859 207.679548,356.464 220.153548,324.392 C233.158548,290.953 240.320548,246.431 240.320548,199.027 C240.320548,151.625 233.158548,107.103 220.153548,73.663 C207.679548,41.592 190.774548,23.197 173.772548,23.197 M173.772548,380.858 C153.873548,380.858 135.416548,361.577 121.800548,326.566 C108.531548,292.451 101.224548,247.156 101.224548,199.027 C101.224548,150.899 108.531548,105.604 121.800548,71.488 C135.416548,36.478 153.873548,17.197 173.772548,17.197 C193.672548,17.197 212.129548,36.478 225.745548,71.488 C239.014548,105.604 246.320548,150.899 246.320548,199.027 C246.320548,247.156 239.014548,292.451 225.745548,326.566 C212.129548,361.577 193.672548,380.858 173.772548,380.858" id="Fill-57" fill="#B5B5B5"></path>
            <path d="M108.767548,236.655 C106.614548,235.081 104.487548,233.496 102.383548,231.9 C102.293548,230.641 102.208548,229.38 102.129548,228.113 C104.216548,229.699 106.329548,231.276 108.466548,232.841 C108.561548,234.116 108.661548,235.388 108.767548,236.655" id="Fill-60" fill="#B5B5B5"></path>
            <path d="M245.014548,164.154 C242.905548,162.528 240.763548,160.908 238.598548,159.3 C238.483548,158.006 238.364548,156.724 238.239548,155.44 C240.424548,157.059 242.577548,158.685 244.706548,160.323 C244.814548,161.596 244.917548,162.873 245.014548,164.154" id="Fill-63" fill="#B5B5B5"></path>
            <path d="M233.971548,301.23 C232.076548,300.656 230.167548,300.056 228.245548,299.431 C228.539548,298.334 228.828548,297.229 229.111548,296.117 C231.036548,296.737 232.949548,297.332 234.845548,297.9 C234.559548,299.017 234.267548,300.128 233.971548,301.23" id="Fill-66" fill="#B5B5B5"></path>
            <path d="M119.994548,96.082 C118.074548,95.443 116.173548,94.832 114.280548,94.245 C114.589548,93.138 114.904548,92.036 115.223548,90.945 C117.114548,91.539 119.012548,92.156 120.930548,92.8 C120.613548,93.885 120.300548,94.981 119.994548,96.082" id="Fill-71" fill="#B5B5B5"></path>
            <path d="M60.8845478,81.164 C42.0065478,81.164 28.6675478,86.255 22.3095478,95.886 C18.0145478,102.392 16.9305478,110.794 19.0845478,120.859 C26.7605478,156.704 74.1725478,207.598 137.063548,247.502 C190.765548,281.578 248.092548,302.747 286.673548,302.747 C305.551548,302.747 318.890548,297.656 325.250548,288.024 C329.545548,281.519 330.631548,273.117 328.476548,263.053 C320.801548,227.207 273.388548,176.312 210.495548,136.408 C156.794548,102.332 99.4675478,81.164 60.8845478,81.164 M286.673548,306.747 C247.375548,306.747 189.226548,285.34 134.921548,250.88 C103.055548,230.661 74.8555478,207.643 53.3745478,184.315 C32.2405478,161.367 19.0315478,139.714 15.1735478,121.697 C12.7855478,110.543 14.0625478,101.117 18.9725478,93.682 C26.1045478,82.876 40.5975478,77.164 60.8845478,77.164 C100.183548,77.164 158.332548,98.571 212.638548,133.03 C244.505548,153.249 272.703548,176.267 294.185548,199.595 C315.320548,222.545 328.529548,244.198 332.387548,262.215 C334.775548,273.369 333.497548,282.794 328.588548,290.228 C321.453548,301.035 306.959548,306.747 286.673548,306.747" id="Fill-72" fill="#B5B5B5"></path>
            <path d="M238.777548,236.662 C238.883548,235.395 238.983548,234.123 239.078548,232.847 C241.215548,231.282 243.328548,229.706 245.415548,228.12 C245.336548,229.386 245.251548,230.648 245.161548,231.907 C243.057548,233.503 240.930548,235.088 238.777548,236.662" id="Fill-76" fill="#B5B5B5"></path>
            <path d="M177.319548,274.796 C176.139548,274.211 174.958548,273.618 173.777548,273.019 C175.240548,272.277 176.705548,271.523 178.170548,270.76 C179.342548,271.345 180.522548,271.928 181.692548,272.499 C180.236548,273.274 178.774548,274.042 177.319548,274.796 M285.808548,196.646 C285.220548,196.04 284.625548,195.432 284.027548,194.827 C284.995548,193.869 285.950548,192.912 286.897548,191.952 C287.489548,192.552 288.073548,193.149 288.656548,193.75 C287.718548,194.716 286.769548,195.681 285.808548,196.646" id="Fill-79" fill="#B5B5B5"></path>
            <path d="M102.530548,164.162 C102.627548,162.881 102.730548,161.604 102.838548,160.33 C104.967548,158.692 107.120548,157.066 109.305548,155.447 C109.180548,156.731 109.061548,158.014 108.946548,159.307 C106.781548,160.915 104.639548,162.536 102.530548,164.162" id="Fill-82" fill="#B5B5B5"></path>
            <path d="M227.551548,96.085 C227.245548,94.984 226.932548,93.888 226.616548,92.803 C228.530548,92.16 230.434548,91.54 232.322548,90.947 C232.641548,92.038 232.956548,93.14 233.265548,94.247 C231.372548,94.835 229.471548,95.446 227.551548,96.085" id="Fill-85" fill="#B5B5B5"></path>
            <path d="M65.3375478,196.603 C64.7295478,196.011 64.1275478,195.419 63.5275478,194.827 C64.4745478,193.867 65.4295478,192.912 66.4005478,191.953 C67.0065478,192.551 67.6195478,193.152 68.2335478,193.75 C67.2555478,194.701 66.2915478,195.651 65.3375478,196.603 M177.278548,117.188 C176.109548,116.575 174.944548,115.971 173.777548,115.372 C175.242548,114.62 176.707548,113.878 178.170548,113.148 C179.343548,113.759 180.519548,114.378 181.693548,115.003 C180.223548,115.72 178.751548,116.449 177.278548,117.188" id="Fill-87" fill="#B5B5B5"></path>
            <path d="M286.670548,81.164 C248.087548,81.164 190.760548,102.332 137.059548,136.407 C74.1675478,176.312 26.7555478,227.206 19.0795478,263.052 C16.9245478,273.117 18.0095478,281.519 22.3045478,288.024 C28.6625478,297.654 42.0025478,302.745 60.8815478,302.747 L60.8905478,302.747 C99.4665478,302.748 156.786548,281.58 210.489548,247.502 C273.382548,207.598 320.794548,156.705 328.468548,120.86 C330.624548,110.795 329.539548,102.392 325.243548,95.886 C318.885548,86.255 305.548548,81.164 286.670548,81.164 M60.8905478,306.747 L60.8815478,306.747 C40.5945478,306.745 26.0995478,301.033 18.9665478,290.228 C14.0575478,282.794 12.7795478,273.368 15.1685478,262.215 C19.0255478,244.198 32.2355478,222.545 53.3695478,199.595 C74.8515478,176.266 103.051548,153.249 134.917548,133.03 C189.221548,98.571 247.370548,77.164 286.670548,77.164 C306.956548,77.164 321.448548,82.876 328.581548,93.683 C333.490548,101.118 334.768548,110.543 332.380548,121.697 C328.522548,139.714 315.312548,161.367 294.180548,184.316 C272.697548,207.644 244.499548,230.661 212.632548,250.88 C158.328548,285.339 100.182548,306.747 60.8905478,306.747" id="Fill-88" fill="#B5B5B5"></path>
            <path d="M123,192.017491 C123,164.947476 145.382647,143 172.999157,143 C200.613979,143 223,164.947476 223,192.017491 C223,219.087507 200.613979,241.033296 172.999157,241.033296 C145.382647,241.033296 123,219.087507 123,192.017491" id="Fill-90" fill="#4A90E2"></path>
            <path d="M319.185548,152.089 C318.023548,151.323 317.016548,150.35 316.220548,149.221 C319.839548,143.321 322.778548,137.594 324.966548,132.12 C325.103548,132.115 325.241548,132.112 325.380548,132.112 C326.660548,132.112 327.890548,132.325 329.036548,132.715 C326.656548,138.876 323.357548,145.36 319.185548,152.089" id="Fill-94" fill="#B5B5B5"></path>
            <path d="M272.276548,305.897 C266.361548,305.235 260.144548,304.192 253.682548,302.791 C253.463548,302.003 253.347548,301.176 253.347548,300.323 C253.347548,299.76 253.397548,299.208 253.495548,298.671 C260.652548,300.257 267.504548,301.397 273.973548,302.061 C273.704548,303.467 273.114548,304.769 272.276548,305.897" id="Fill-99" fill="#B5B5B5"></path>
            <path d="M193.093548,31.086 C191.513548,29.782 189.918548,28.634 188.309548,27.646 C189.094548,26.569 189.756548,25.4 190.278548,24.16 L194.970548,27.706 C194.470548,28.905 193.838548,30.037 193.093548,31.086" id="Fill-103" fill="#B5B5B5"></path>
            <path d="M155.927548,17.496 C155.927548,7.834 163.917548,-3.55271368e-15 173.772548,-3.55271368e-15 C183.628548,-3.55271368e-15 191.618548,7.834 191.618548,17.496 C191.618548,27.158 183.628548,34.991 173.772548,34.991 C163.917548,34.991 155.927548,27.158 155.927548,17.496" id="Fill-104" fill="#8DB65D"></path>
            <path d="M311,96.496 C311,86.834 318.99,79 328.845,79 C338.701,79 346.691,86.834 346.691,96.496 C346.691,106.158 338.701,113.991 328.845,113.991 C318.99,113.991 311,106.158 311,96.496" id="Fill-104" fill="#8DB65D"></path>
            <path d="M0.855095506,96.496 C0.855095506,86.834 8.84509551,79 18.7000955,79 C28.5560955,79 36.5460955,86.834 36.5460955,96.496 C36.5460955,106.158 28.5560955,113.991 18.7000955,113.991 C8.84509551,113.991 0.855095506,106.158 0.855095506,96.496" id="Fill-104" fill="#8DB65D"></path>
        </g>
    </g>
</svg>