<?xml version="1.0" encoding="UTF-8"?><svg xmlns="http://www.w3.org/2000/svg" xmlns:xlink="http://www.w3.org/1999/xlink" fill-opacity="1" color-rendering="auto" color-interpolation="auto" text-rendering="auto" stroke="black" stroke-linecap="square" width="1750" stroke-miterlimit="10" shape-rendering="auto" stroke-opacity="1" fill="black" stroke-dasharray="none" font-weight="normal" stroke-width="1" height="984" font-family="'Dialog'" font-style="normal" stroke-linejoin="miter" font-size="12px" stroke-dashoffset="0" image-rendering="auto">
  <!--Generated by ySVG 2.5-->
  <defs id="genericDefs"/>
  <g>
    <defs id="defs1">
      <linearGradient x1="-64.0781" gradientUnits="userSpaceOnUse" x2="190.3087" y1="327.5409" y2="404.7023" id="linearGradient1" spreadMethod="reflect">
        <stop stop-opacity="1" stop-color="rgb(153,204,255)" offset="0%"/>
        <stop stop-opacity="1" stop-color="rgb(153,204,255)" offset="100%"/>
      </linearGradient>
      <linearGradient x1="559.5235" gradientUnits="userSpaceOnUse" x2="713.7362" y1="185.8239" y2="241.8058" id="linearGradient2" spreadMethod="reflect">
        <stop stop-opacity="1" stop-color="rgb(255,255,153)" offset="0%"/>
        <stop stop-opacity="1" stop-color="rgb(255,255,153)" offset="100%"/>
      </linearGradient>
      <linearGradient x1="454.6969" gradientUnits="userSpaceOnUse" x2="608.9097" y1="338.1306" y2="394.1125" id="linearGradient3" spreadMethod="reflect">
        <stop stop-opacity="1" stop-color="rgb(153,204,255)" offset="0%"/>
        <stop stop-opacity="1" stop-color="rgb(153,204,255)" offset="100%"/>
      </linearGradient>
      <linearGradient x1="957.6982" gradientUnits="userSpaceOnUse" x2="1111.9109" y1="338.1306" y2="394.1125" id="linearGradient4" spreadMethod="reflect">
        <stop stop-opacity="1" stop-color="rgb(153,204,255)" offset="0%"/>
        <stop stop-opacity="1" stop-color="rgb(153,204,255)" offset="100%"/>
      </linearGradient>
      <linearGradient x1="1258.6178" gradientUnits="userSpaceOnUse" x2="1412.8306" y1="338.1306" y2="394.1125" id="linearGradient5" spreadMethod="reflect">
        <stop stop-opacity="1" stop-color="rgb(153,204,255)" offset="0%"/>
        <stop stop-opacity="1" stop-color="rgb(153,204,255)" offset="100%"/>
      </linearGradient>
      <linearGradient x1="222.8564" gradientUnits="userSpaceOnUse" x2="377.0692" y1="338.1306" y2="394.1125" id="linearGradient6" spreadMethod="reflect">
        <stop stop-opacity="1" stop-color="rgb(153,204,255)" offset="0%"/>
        <stop stop-opacity="1" stop-color="rgb(153,204,255)" offset="100%"/>
      </linearGradient>
      <linearGradient x1="222.8564" gradientUnits="userSpaceOnUse" x2="377.0692" y1="481.0609" y2="537.0427" id="linearGradient7" spreadMethod="reflect">
        <stop stop-opacity="1" stop-color="rgb(255,255,153)" offset="0%"/>
        <stop stop-opacity="1" stop-color="rgb(255,255,153)" offset="100%"/>
      </linearGradient>
      <linearGradient x1="442.1646" gradientUnits="userSpaceOnUse" x2="621.442" y1="481.0609" y2="537.0427" id="linearGradient8" spreadMethod="reflect">
        <stop stop-opacity="1" stop-color="rgb(255,255,153)" offset="0%"/>
        <stop stop-opacity="1" stop-color="rgb(255,255,153)" offset="100%"/>
      </linearGradient>
      <linearGradient x1="661.4727" gradientUnits="userSpaceOnUse" x2="861.8535" y1="481.0609" y2="537.0427" id="linearGradient9" spreadMethod="reflect">
        <stop stop-opacity="1" stop-color="rgb(255,255,153)" offset="0%"/>
        <stop stop-opacity="1" stop-color="rgb(255,255,153)" offset="100%"/>
      </linearGradient>
      <linearGradient x1="901.8842" gradientUnits="userSpaceOnUse" x2="1167.7249" y1="481.0609" y2="537.0427" id="linearGradient10" spreadMethod="reflect">
        <stop stop-opacity="1" stop-color="rgb(255,255,153)" offset="0%"/>
        <stop stop-opacity="1" stop-color="rgb(255,255,153)" offset="100%"/>
      </linearGradient>
      <linearGradient x1="1197.7249" gradientUnits="userSpaceOnUse" x2="1473.7235" y1="481.0609" y2="537.0427" id="linearGradient11" spreadMethod="reflect">
        <stop stop-opacity="1" stop-color="rgb(255,255,153)" offset="0%"/>
        <stop stop-opacity="1" stop-color="rgb(255,255,153)" offset="100%"/>
      </linearGradient>
      <linearGradient x1="-117.7824" gradientUnits="userSpaceOnUse" x2="28.492" y1="652.7213" y2="708.7031" id="linearGradient12" spreadMethod="reflect">
        <stop stop-opacity="1" stop-color="rgb(153,204,255)" offset="0%"/>
        <stop stop-opacity="1" stop-color="rgb(153,204,255)" offset="100%"/>
      </linearGradient>
      <linearGradient x1="44.0344" gradientUnits="userSpaceOnUse" x2="190.3087" y1="651.5981" y2="707.58" id="linearGradient13" spreadMethod="reflect">
        <stop stop-opacity="1" stop-color="rgb(153,204,255)" offset="0%"/>
        <stop stop-opacity="1" stop-color="rgb(153,204,255)" offset="100%"/>
      </linearGradient>
      <linearGradient x1="205.8511" gradientUnits="userSpaceOnUse" x2="394.0745" y1="646.9789" y2="702.9608" id="linearGradient14" spreadMethod="reflect">
        <stop stop-opacity="1" stop-color="rgb(153,204,255)" offset="0%"/>
        <stop stop-opacity="1" stop-color="rgb(153,204,255)" offset="100%"/>
      </linearGradient>
      <linearGradient x1="437.6916" gradientUnits="userSpaceOnUse" x2="625.915" y1="646.9789" y2="702.9608" id="linearGradient15" spreadMethod="reflect">
        <stop stop-opacity="1" stop-color="rgb(153,204,255)" offset="0%"/>
        <stop stop-opacity="1" stop-color="rgb(153,204,255)" offset="100%"/>
      </linearGradient>
      <linearGradient x1="667.5514" gradientUnits="userSpaceOnUse" x2="855.7748" y1="646.9789" y2="702.9608" id="linearGradient16" spreadMethod="reflect">
        <stop stop-opacity="1" stop-color="rgb(153,204,255)" offset="0%"/>
        <stop stop-opacity="1" stop-color="rgb(153,204,255)" offset="100%"/>
      </linearGradient>
      <linearGradient x1="940.6929" gradientUnits="userSpaceOnUse" x2="1128.9163" y1="646.9789" y2="702.9608" id="linearGradient17" spreadMethod="reflect">
        <stop stop-opacity="1" stop-color="rgb(153,204,255)" offset="0%"/>
        <stop stop-opacity="1" stop-color="rgb(153,204,255)" offset="100%"/>
      </linearGradient>
      <linearGradient x1="1241.6125" gradientUnits="userSpaceOnUse" x2="1429.8359" y1="646.9789" y2="702.9608" id="linearGradient18" spreadMethod="reflect">
        <stop stop-opacity="1" stop-color="rgb(153,204,255)" offset="0%"/>
        <stop stop-opacity="1" stop-color="rgb(153,204,255)" offset="100%"/>
      </linearGradient>
      <linearGradient x1="128.6358" gradientUnits="userSpaceOnUse" x2="307.9132" y1="954.4758" y2="1010.4576" id="linearGradient19" spreadMethod="reflect">
        <stop stop-opacity="1" stop-color="rgb(255,255,153)" offset="0%"/>
        <stop stop-opacity="1" stop-color="rgb(255,255,153)" offset="100%"/>
      </linearGradient>
      <linearGradient x1="346.6788" gradientUnits="userSpaceOnUse" x2="534.9022" y1="954.4758" y2="1010.4576" id="linearGradient20" spreadMethod="reflect">
        <stop stop-opacity="1" stop-color="rgb(153,204,255)" offset="0%"/>
        <stop stop-opacity="1" stop-color="rgb(153,204,255)" offset="100%"/>
      </linearGradient>
      <linearGradient x1="801.98" gradientUnits="userSpaceOnUse" x2="1002.3607" y1="954.4758" y2="1010.4576" id="linearGradient21" spreadMethod="reflect">
        <stop stop-opacity="1" stop-color="rgb(255,255,153)" offset="0%"/>
        <stop stop-opacity="1" stop-color="rgb(255,255,153)" offset="100%"/>
      </linearGradient>
      <linearGradient x1="-0.0356" gradientUnits="userSpaceOnUse" x2="126.2663" y1="193.8148" y2="261.6513" id="linearGradient22" spreadMethod="reflect">
        <stop stop-opacity="1" stop-color="rgb(255,255,153)" offset="0%"/>
        <stop stop-opacity="1" stop-color="rgb(255,255,153)" offset="100%"/>
      </linearGradient>
      <linearGradient x1="1109.512" gradientUnits="userSpaceOnUse" x2="1328.9753" y1="923.9346" y2="1040.9989" id="linearGradient23" spreadMethod="reflect">
        <stop stop-opacity="1" stop-color="rgb(153,204,255)" offset="0%"/>
        <stop stop-opacity="1" stop-color="rgb(153,204,255)" offset="100%"/>
      </linearGradient>
      <linearGradient x1="763.6918" gradientUnits="userSpaceOnUse" x2="951.9152" y1="793.7604" y2="849.7423" id="linearGradient24" spreadMethod="reflect">
        <stop stop-opacity="1" stop-color="rgb(153,204,255)" offset="0%"/>
        <stop stop-opacity="1" stop-color="rgb(153,204,255)" offset="100%"/>
      </linearGradient>
      <linearGradient x1="981.9152" gradientUnits="userSpaceOnUse" x2="1214.0662" y1="793.7604" y2="849.7423" id="linearGradient25" spreadMethod="reflect">
        <stop stop-opacity="1" stop-color="rgb(153,204,255)" offset="0%"/>
        <stop stop-opacity="1" stop-color="rgb(153,204,255)" offset="100%"/>
      </linearGradient>
      <linearGradient x1="1239.2601" gradientUnits="userSpaceOnUse" x2="1458.7235" y1="793.7604" y2="849.7423" id="linearGradient26" spreadMethod="reflect">
        <stop stop-opacity="1" stop-color="rgb(153,204,255)" offset="0%"/>
        <stop stop-opacity="1" stop-color="rgb(153,204,255)" offset="100%"/>
      </linearGradient>
      <linearGradient x1="545.4684" gradientUnits="userSpaceOnUse" x2="733.6918" y1="793.7604" y2="849.7423" id="linearGradient27" spreadMethod="reflect">
        <stop stop-opacity="1" stop-color="rgb(153,204,255)" offset="0%"/>
        <stop stop-opacity="1" stop-color="rgb(153,204,255)" offset="100%"/>
      </linearGradient>
      <clipPath clipPathUnits="userSpaceOnUse" id="clipPath1">
        <path d="M0 0 L1750 0 L1750 984 L0 984 L0 0 Z"/>
      </clipPath>
      <clipPath clipPathUnits="userSpaceOnUse" id="clipPath2">
        <path d="M-173 124 L1577 124 L1577 1108 L-173 1108 L-173 124 Z"/>
      </clipPath>
    </defs>
    <g fill="white" text-rendering="geometricPrecision" shape-rendering="geometricPrecision" transform="translate(173,-124)" stroke="white">
      <rect x="-173" width="1750" height="984" y="124" clip-path="url(#clipPath2)" stroke="none"/>
    </g>
    <g stroke-linecap="butt" transform="matrix(1,0,0,1,173,-124)" fill="rgb(153,153,153)" text-rendering="geometricPrecision" shape-rendering="geometricPrecision" stroke-dasharray="12,4" stroke="rgb(153,153,153)" stroke-width="2" stroke-miterlimit="1.45">
      <path fill="none" d="M-157.9811 463.0977 L1561.7196 463.0977 L1561.7196 898.3266 L-157.9811 898.3266 Z" clip-path="url(#clipPath2)"/>
    </g>
    <g stroke-linecap="butt" transform="matrix(1,0,0,1,173,-124)" fill="rgb(153,153,153)" text-rendering="geometricPrecision" shape-rendering="geometricPrecision" stroke-dasharray="12,4" stroke="rgb(153,153,153)" stroke-width="2" stroke-miterlimit="1.45">
      <path fill="none" d="M591.2845 913.9121 L1561.7196 913.9121 L1561.7196 1092.7377 L591.2845 1092.7377 Z" clip-path="url(#clipPath2)"/>
    </g>
    <g stroke-linecap="butt" transform="matrix(1,0,0,1,173,-124)" fill="rgb(153,153,153)" text-rendering="geometricPrecision" shape-rendering="geometricPrecision" stroke-dasharray="12,4" stroke="rgb(153,153,153)" stroke-width="2" stroke-miterlimit="1.45">
      <path fill="none" d="M-157.9811 913.9121 L561.2845 913.9121 L561.2845 1092.7377 L-157.9811 1092.7377 Z" clip-path="url(#clipPath2)"/>
    </g>
    <g fill="url(#linearGradient1)" text-rendering="geometricPrecision" shape-rendering="geometricPrecision" transform="matrix(1,0,0,1,173,-124)" stroke="url(#linearGradient1)">
      <path d="M-44.402 327.5409 L190.3087 327.5409 L170.6326 404.7023 L-64.0781 404.7023 Z" stroke="none" clip-path="url(#clipPath2)"/>
    </g>
    <g text-rendering="geometricPrecision" stroke-miterlimit="1.45" shape-rendering="geometricPrecision" transform="matrix(1,0,0,1,173,-124)" stroke-linecap="butt">
      <path fill="none" d="M-44.402 327.5409 L190.3087 327.5409 L170.6326 404.7023 L-64.0781 404.7023 Z" clip-path="url(#clipPath2)"/>
      <text x="-45.3647" font-size="22px" y="374.436" clip-path="url(#clipPath2)" font-family="sans-serif" stroke="none" xml:space="preserve">Crossref Data Dump</text>
    </g>
    <g fill="url(#linearGradient2)" text-rendering="geometricPrecision" shape-rendering="geometricPrecision" transform="matrix(1,0,0,1,173,-124)" stroke="url(#linearGradient2)">
      <path d="M559.5235 185.8239 L713.7362 185.8239 L713.7362 241.8058 L559.5235 241.8058 Z" stroke="none" clip-path="url(#clipPath2)"/>
    </g>
    <g text-rendering="geometricPrecision" stroke-miterlimit="1.45" shape-rendering="geometricPrecision" transform="matrix(1,0,0,1,173,-124)" stroke-linecap="butt">
      <path fill="none" d="M559.5235 185.8239 L713.7362 185.8239 L713.7362 241.8058 L559.5235 241.8058 Z" clip-path="url(#clipPath2)"/>
      <text x="599.9795" font-size="20px" y="221.3734" clip-path="url(#clipPath2)" font-family="sans-serif" stroke="none" xml:space="preserve">Process</text>
    </g>
    <g fill="url(#linearGradient3)" text-rendering="geometricPrecision" shape-rendering="geometricPrecision" transform="matrix(1,0,0,1,173,-124)" stroke="url(#linearGradient3)">
      <path d="M468.9723 338.1306 L608.9097 338.1306 L594.6343 394.1125 L454.6969 394.1125 Z" stroke="none" clip-path="url(#clipPath2)"/>
    </g>
    <g text-rendering="geometricPrecision" stroke-miterlimit="1.45" shape-rendering="geometricPrecision" transform="matrix(1,0,0,1,173,-124)" stroke-linecap="butt">
      <path fill="none" d="M468.9723 338.1306 L608.9097 338.1306 L594.6343 394.1125 L454.6969 394.1125 Z" clip-path="url(#clipPath2)"/>
      <text x="507.1236" font-size="18px" y="372.9243" clip-path="url(#clipPath2)" font-family="sans-serif" stroke="none" xml:space="preserve">Dates</text>
    </g>
    <g fill="url(#linearGradient4)" text-rendering="geometricPrecision" shape-rendering="geometricPrecision" transform="matrix(1,0,0,1,173,-124)" stroke="url(#linearGradient4)">
      <path d="M971.9736 338.1306 L1111.9109 338.1306 L1097.6355 394.1125 L957.6982 394.1125 Z" stroke="none" clip-path="url(#clipPath2)"/>
    </g>
    <g text-rendering="geometricPrecision" stroke-miterlimit="1.45" shape-rendering="geometricPrecision" transform="matrix(1,0,0,1,173,-124)" stroke-linecap="butt">
      <path fill="none" d="M971.9736 338.1306 L1111.9109 338.1306 L1097.6355 394.1125 L957.6982 394.1125 Z" clip-path="url(#clipPath2)"/>
      <text x="1006.5609" font-size="18px" y="372.9243" clip-path="url(#clipPath2)" font-family="sans-serif" stroke="none" xml:space="preserve">ORCID</text>
    </g>
    <g fill="url(#linearGradient5)" text-rendering="geometricPrecision" shape-rendering="geometricPrecision" transform="matrix(1,0,0,1,173,-124)" stroke="url(#linearGradient5)">
      <path d="M1272.8932 338.1306 L1412.8306 338.1306 L1398.5552 394.1125 L1258.6178 394.1125 Z" stroke="none" clip-path="url(#clipPath2)"/>
    </g>
    <g text-rendering="geometricPrecision" stroke-miterlimit="1.45" shape-rendering="geometricPrecision" transform="matrix(1,0,0,1,173,-124)" stroke-linecap="butt">
      <path fill="none" d="M1272.8932 338.1306 L1412.8306 338.1306 L1398.5552 394.1125 L1258.6178 394.1125 Z" clip-path="url(#clipPath2)"/>
      <text x="1316.7882" font-size="18px" y="372.9243" clip-path="url(#clipPath2)" font-family="sans-serif" stroke="none" xml:space="preserve">ISSN</text>
    </g>
    <g fill="url(#linearGradient6)" text-rendering="geometricPrecision" shape-rendering="geometricPrecision" transform="matrix(1,0,0,1,173,-124)" stroke="url(#linearGradient6)">
      <path d="M237.1318 338.1306 L377.0692 338.1306 L362.7938 394.1125 L222.8564 394.1125 Z" stroke="none" clip-path="url(#clipPath2)"/>
    </g>
    <g text-rendering="geometricPrecision" stroke-miterlimit="1.45" shape-rendering="geometricPrecision" transform="matrix(1,0,0,1,173,-124)" stroke-linecap="butt">
      <path fill="none" d="M237.1318 338.1306 L377.0692 338.1306 L362.7938 394.1125 L222.8564 394.1125 Z" clip-path="url(#clipPath2)"/>
      <text x="267.5971" font-size="18px" y="372.9243" clip-path="url(#clipPath2)" font-family="sans-serif" stroke="none" xml:space="preserve">Lookup</text>
    </g>
    <g fill="url(#linearGradient7)" text-rendering="geometricPrecision" shape-rendering="geometricPrecision" transform="matrix(1,0,0,1,173,-124)" stroke="url(#linearGradient7)">
      <path d="M222.8564 481.0609 L377.0692 481.0609 L377.0692 537.0427 L222.8564 537.0427 Z" stroke="none" clip-path="url(#clipPath2)"/>
    </g>
    <g text-rendering="geometricPrecision" stroke-miterlimit="1.45" shape-rendering="geometricPrecision" transform="matrix(1,0,0,1,173,-124)" stroke-linecap="butt">
      <path fill="none" d="M222.8564 481.0609 L377.0692 481.0609 L377.0692 537.0427 L222.8564 537.0427 Z" clip-path="url(#clipPath2)"/>
      <text x="235.7294" font-size="20px" y="516.6104" clip-path="url(#clipPath2)" font-family="sans-serif" stroke="none" xml:space="preserve">Generate OCI</text>
    </g>
    <g fill="url(#linearGradient8)" text-rendering="geometricPrecision" shape-rendering="geometricPrecision" transform="matrix(1,0,0,1,173,-124)" stroke="url(#linearGradient8)">
      <path d="M442.1646 481.0609 L621.442 481.0609 L621.442 537.0427 L442.1646 537.0427 Z" stroke="none" clip-path="url(#clipPath2)"/>
    </g>
    <g text-rendering="geometricPrecision" stroke-miterlimit="1.45" shape-rendering="geometricPrecision" transform="matrix(1,0,0,1,173,-124)" stroke-linecap="butt">
      <path fill="none" d="M442.1646 481.0609 L621.442 481.0609 L621.442 537.0427 L442.1646 537.0427 Z" clip-path="url(#clipPath2)"/>
      <text x="448.522" font-size="20px" y="516.6104" clip-path="url(#clipPath2)" font-family="sans-serif" stroke="none" xml:space="preserve">Get creation date</text>
    </g>
    <g fill="url(#linearGradient9)" text-rendering="geometricPrecision" shape-rendering="geometricPrecision" transform="matrix(1,0,0,1,173,-124)" stroke="url(#linearGradient9)">
      <path d="M661.4727 481.0609 L861.8535 481.0609 L861.8535 537.0427 L661.4727 537.0427 Z" stroke="none" clip-path="url(#clipPath2)"/>
    </g>
    <g text-rendering="geometricPrecision" stroke-miterlimit="1.45" shape-rendering="geometricPrecision" transform="matrix(1,0,0,1,173,-124)" stroke-linecap="butt">
      <path fill="none" d="M661.4727 481.0609 L861.8535 481.0609 L861.8535 537.0427 L661.4727 537.0427 Z" clip-path="url(#clipPath2)"/>
      <text x="669.4561" font-size="20px" y="516.6104" clip-path="url(#clipPath2)" font-family="sans-serif" stroke="none" xml:space="preserve">Calculate timespan</text>
    </g>
    <g fill="url(#linearGradient10)" text-rendering="geometricPrecision" shape-rendering="geometricPrecision" transform="matrix(1,0,0,1,173,-124)" stroke="url(#linearGradient10)">
      <path d="M901.8842 481.0609 L1167.7249 481.0609 L1167.7249 537.0427 L901.8842 537.0427 Z" stroke="none" clip-path="url(#clipPath2)"/>
    </g>
    <g text-rendering="geometricPrecision" stroke-miterlimit="1.45" shape-rendering="geometricPrecision" transform="matrix(1,0,0,1,173,-124)" stroke-linecap="butt">
      <path fill="none" d="M901.8842 481.0609 L1167.7249 481.0609 L1167.7249 537.0427 L901.8842 537.0427 Z" clip-path="url(#clipPath2)"/>
      <text x="908.8719" font-size="20px" y="516.6104" clip-path="url(#clipPath2)" font-family="sans-serif" stroke="none" xml:space="preserve">Check Author self citation</text>
    </g>
    <g fill="url(#linearGradient11)" text-rendering="geometricPrecision" shape-rendering="geometricPrecision" transform="matrix(1,0,0,1,173,-124)" stroke="url(#linearGradient11)">
      <path d="M1197.7249 481.0609 L1473.7235 481.0609 L1473.7235 537.0427 L1197.7249 537.0427 Z" stroke="none" clip-path="url(#clipPath2)"/>
    </g>
    <g text-rendering="geometricPrecision" stroke-miterlimit="1.45" shape-rendering="geometricPrecision" transform="matrix(1,0,0,1,173,-124)" stroke-linecap="butt">
      <path fill="none" d="M1197.7249 481.0609 L1473.7235 481.0609 L1473.7235 537.0427 L1197.7249 537.0427 Z" clip-path="url(#clipPath2)"/>
      <text x="1208.9078" font-size="20px" y="516.6104" clip-path="url(#clipPath2)" font-family="sans-serif" stroke="none" xml:space="preserve">Check Journal self citation</text>
    </g>
    <g text-rendering="geometricPrecision" stroke-miterlimit="1.45" shape-rendering="geometricPrecision" transform="matrix(1,0,0,1,173,-124)" stroke-linecap="butt">
      <path fill="none" d="M63.1153 327.5696 L63.1153 303.6082 L551.6111 227.1259" clip-path="url(#clipPath2)"/>
    </g>
    <g text-rendering="geometricPrecision" stroke-miterlimit="1.45" shape-rendering="geometricPrecision" transform="matrix(1,0,0,1,173,-124)" stroke-linecap="butt">
      <path d="M559.5148 225.8885 L546.8859 222.8049 L550.6232 227.2806 L548.4327 232.6845 Z" stroke="none" clip-path="url(#clipPath2)"/>
      <path fill="none" d="M601.7986 241.8086 L531.8033 298.0637 L531.8033 330.1075" clip-path="url(#clipPath2)"/>
      <path d="M531.8033 338.1075 L536.8033 326.1075 L531.8033 329.1075 L526.8033 326.1075 Z" clip-path="url(#clipPath2)" stroke="none"/>
      <rect x="489.036" y="263.0753" clip-path="url(#clipPath2)" fill="white" width="144.1797" height="22.8438" stroke="none"/>
      <text x="491.036" font-size="16px" y="280.5441" clip-path="url(#clipPath2)" font-family="sans-serif" stroke="none" xml:space="preserve">Add/Update value</text>
      <path fill="none" d="M713.7665 229.0633 L1034.8046 292.5267 L1034.8046 330.1282" clip-path="url(#clipPath2)"/>
      <path d="M1034.8046 338.1282 L1039.8046 326.1282 L1034.8046 329.1282 L1029.8046 326.1282 Z" clip-path="url(#clipPath2)" stroke="none"/>
      <rect x="838.4188" y="250.2721" clip-path="url(#clipPath2)" fill="white" width="80.8281" height="22.8438" stroke="none"/>
      <text x="840.4188" font-size="16px" y="267.7408" clip-path="url(#clipPath2)" font-family="sans-serif" stroke="none" xml:space="preserve">Add value</text>
      <path fill="none" d="M713.7333 221.0041 L1335.7242 278.9994 L1335.7242 330.1727" clip-path="url(#clipPath2)"/>
      <path d="M1335.7242 338.1727 L1340.7242 326.1727 L1335.7242 329.1727 L1330.7242 326.1727 Z" clip-path="url(#clipPath2)" stroke="none"/>
      <rect x="988.8787" y="239.0054" clip-path="url(#clipPath2)" fill="white" width="80.8281" height="22.8438" stroke="none"/>
      <text x="990.8787" font-size="16px" y="256.4742" clip-path="url(#clipPath2)" font-family="sans-serif" stroke="none" xml:space="preserve">Add value</text>
      <path fill="none" d="M264.2087 394.1176 L264.2087 473.0719" clip-path="url(#clipPath2)"/>
      <path d="M264.2087 481.0719 L269.2087 469.0719 L264.2087 472.0719 L259.2087 469.0719 Z" clip-path="url(#clipPath2)" stroke="none"/>
      <path fill="none" d="M63.1153 404.6806 L63.1153 509.0518 L214.8544 509.0518" clip-path="url(#clipPath2)"/>
      <path d="M222.8544 509.0518 L210.8544 504.0518 L213.8544 509.0518 L210.8544 514.0518 Z" clip-path="url(#clipPath2)" stroke="none"/>
      <path fill="none" d="M332.7452 481.0956 L332.7452 402.1116" clip-path="url(#clipPath2)"/>
      <path d="M332.7452 394.1116 L327.7452 406.1116 L332.7452 403.1116 L337.7452 406.1116 Z" clip-path="url(#clipPath2)" stroke="none"/>
      <rect x="292.3312" y="426.1648" clip-path="url(#clipPath2)" fill="white" width="80.8281" height="22.8438" stroke="none"/>
      <text x="294.3312" font-size="16px" y="443.6336" clip-path="url(#clipPath2)" font-family="sans-serif" stroke="none" xml:space="preserve">Add value</text>
      <path fill="none" d="M531.8033 394.1423 L531.8033 473.0819" clip-path="url(#clipPath2)"/>
      <path d="M531.8033 481.0819 L536.8033 469.0819 L531.8033 472.0819 L526.8033 469.0819 Z" clip-path="url(#clipPath2)" stroke="none"/>
      <path fill="none" d="M377.0826 509.0518 L434.1665 509.0518" clip-path="url(#clipPath2)"/>
      <path d="M442.1665 509.0518 L430.1665 504.0518 L433.1665 509.0518 L430.1665 514.0518 Z" clip-path="url(#clipPath2)" stroke="none"/>
      <path fill="none" d="M598.0507 380.7657 L761.6631 416.9323 L761.6631 473.0291" clip-path="url(#clipPath2)"/>
      <path d="M761.6631 481.0291 L766.6631 469.0291 L761.6631 472.0291 L756.6631 469.0291 Z" clip-path="url(#clipPath2)" stroke="none"/>
      <path fill="none" d="M621.452 509.0518 L653.4683 509.0518" clip-path="url(#clipPath2)"/>
      <path d="M661.4683 509.0518 L649.4683 504.0518 L652.4683 509.0518 L649.4683 514.0518 Z" clip-path="url(#clipPath2)" stroke="none"/>
      <path fill="none" d="M1034.8046 394.1423 L1034.8046 473.0819" clip-path="url(#clipPath2)"/>
      <path d="M1034.8046 481.0819 L1039.8046 469.0819 L1034.8046 472.0819 L1029.8046 469.0819 Z" clip-path="url(#clipPath2)" stroke="none"/>
      <path fill="none" d="M861.8572 509.0518 L893.8428 509.0518" clip-path="url(#clipPath2)"/>
      <path d="M901.8428 509.0518 L889.8428 504.0518 L892.8428 509.0518 L889.8428 514.0518 Z" clip-path="url(#clipPath2)" stroke="none"/>
      <path fill="none" d="M1335.7242 394.1423 L1335.7242 473.0819" clip-path="url(#clipPath2)"/>
      <path d="M1335.7242 481.0819 L1340.7242 469.0819 L1335.7242 472.0819 L1330.7242 469.0819 Z" clip-path="url(#clipPath2)" stroke="none"/>
      <path fill="none" d="M1167.7426 509.0518 L1189.7217 509.0518" clip-path="url(#clipPath2)"/>
      <path d="M1197.7217 509.0518 L1185.7217 504.0518 L1188.7217 509.0518 L1185.7217 514.0518 Z" clip-path="url(#clipPath2)" stroke="none"/>
    </g>
    <g fill="rgb(245,245,245)" text-rendering="geometricPrecision" shape-rendering="geometricPrecision" transform="matrix(1,0,0,1,173,-124)" stroke="rgb(245,245,245)">
      <rect x="-133.8274" y="569.9432" clip-path="url(#clipPath2)" width="1607.551" rx="4" ry="4" height="158.1179" stroke="none"/>
      <rect x="-133.8274" y="569.9432" clip-path="url(#clipPath2)" fill="rgb(153,204,255)" width="1607.551" height="29.9102" stroke="none"/>
    </g>
    <g font-size="22px" stroke-linecap="butt" transform="matrix(1,0,0,1,173,-124)" text-rendering="geometricPrecision" font-family="sans-serif" shape-rendering="geometricPrecision" stroke-miterlimit="1.45">
      <text x="-131.8274" xml:space="preserve" y="593.2127" clip-path="url(#clipPath2)" stroke="none">   Citations dataset in CSV</text>
      <rect x="-133.8274" y="569.9432" clip-path="url(#clipPath2)" fill="none" width="1607.551" stroke-dasharray="6,2" rx="4" ry="4" height="158.1179"/>
    </g>
    <g fill="url(#linearGradient12)" text-rendering="geometricPrecision" shape-rendering="geometricPrecision" transform="matrix(1,0,0,1,173,-124)" stroke="url(#linearGradient12)">
      <path d="M-103.507 652.7213 L28.492 652.7213 L14.2166 708.7031 L-117.7824 708.7031 Z" stroke="none" clip-path="url(#clipPath2)"/>
    </g>
    <g text-rendering="geometricPrecision" stroke-miterlimit="1.45" shape-rendering="geometricPrecision" transform="matrix(1,0,0,1,173,-124)" stroke-linecap="butt">
      <path fill="none" d="M-103.507 652.7213 L28.492 652.7213 L14.2166 708.7031 L-117.7824 708.7031 Z" clip-path="url(#clipPath2)"/>
      <text x="-75.1213" font-size="15px" y="677.5481" clip-path="url(#clipPath2)" font-family="sans-serif" stroke="none" xml:space="preserve">10.nnnn</text>
      <text x="-87.1623" font-size="15px" y="695.2141" clip-path="url(#clipPath2)" font-family="sans-serif" stroke="none" xml:space="preserve">(Citing DOI)</text>
    </g>
    <g fill="url(#linearGradient13)" text-rendering="geometricPrecision" shape-rendering="geometricPrecision" transform="matrix(1,0,0,1,173,-124)" stroke="url(#linearGradient13)">
      <path d="M58.3097 651.5981 L190.3087 651.5981 L176.0334 707.58 L44.0344 707.58 Z" stroke="none" clip-path="url(#clipPath2)"/>
    </g>
    <g text-rendering="geometricPrecision" stroke-miterlimit="1.45" shape-rendering="geometricPrecision" transform="matrix(1,0,0,1,173,-124)" stroke-linecap="butt">
      <path fill="none" d="M58.3097 651.5981 L190.3087 651.5981 L176.0334 707.58 L44.0344 707.58 Z" clip-path="url(#clipPath2)"/>
      <text x="86.6955" font-size="15px" y="676.425" clip-path="url(#clipPath2)" font-family="sans-serif" stroke="none" xml:space="preserve">10.nnnn</text>
      <text x="74.6545" font-size="15px" y="694.091" clip-path="url(#clipPath2)" font-family="sans-serif" stroke="none" xml:space="preserve">(Citing DOI)</text>
    </g>
    <g fill="url(#linearGradient14)" text-rendering="geometricPrecision" shape-rendering="geometricPrecision" transform="matrix(1,0,0,1,173,-124)" stroke="url(#linearGradient14)">
      <path d="M220.1265 646.9789 L394.0745 646.9789 L379.7991 702.9608 L205.8511 702.9608 Z" stroke="none" clip-path="url(#clipPath2)"/>
    </g>
    <g text-rendering="geometricPrecision" stroke-miterlimit="1.45" shape-rendering="geometricPrecision" transform="matrix(1,0,0,1,173,-124)" stroke-linecap="butt">
      <path fill="none" d="M220.1265 646.9789 L394.0745 646.9789 L379.7991 702.9608 L205.8511 702.9608 Z" clip-path="url(#clipPath2)"/>
      <text x="224.4758" font-size="15px" y="671.8058" clip-path="url(#clipPath2)" font-family="sans-serif" stroke="none" xml:space="preserve">020123...-020321...</text>
      <text x="281.9086" font-size="15px" y="689.4719" clip-path="url(#clipPath2)" font-family="sans-serif" stroke="none" xml:space="preserve">(OCI)</text>
    </g>
    <g fill="url(#linearGradient15)" text-rendering="geometricPrecision" shape-rendering="geometricPrecision" transform="matrix(1,0,0,1,173,-124)" stroke="url(#linearGradient15)">
      <path d="M451.9669 646.9789 L625.915 646.9789 L611.6396 702.9608 L437.6916 702.9608 Z" stroke="none" clip-path="url(#clipPath2)"/>
    </g>
    <g text-rendering="geometricPrecision" stroke-miterlimit="1.45" shape-rendering="geometricPrecision" transform="matrix(1,0,0,1,173,-124)" stroke-linecap="butt">
      <path fill="none" d="M451.9669 646.9789 L625.915 646.9789 L611.6396 702.9608 L437.6916 702.9608 Z" clip-path="url(#clipPath2)"/>
      <text x="485.1846" font-size="15px" y="671.8058" clip-path="url(#clipPath2)" font-family="sans-serif" stroke="none" xml:space="preserve">2018-01-01</text>
      <text x="477.8934" font-size="15px" y="689.4719" clip-path="url(#clipPath2)" font-family="sans-serif" stroke="none" xml:space="preserve">(Creation date)</text>
    </g>
    <g fill="url(#linearGradient16)" text-rendering="geometricPrecision" shape-rendering="geometricPrecision" transform="matrix(1,0,0,1,173,-124)" stroke="url(#linearGradient16)">
      <path d="M681.8268 646.9789 L855.7748 646.9789 L841.4994 702.9608 L667.5514 702.9608 Z" stroke="none" clip-path="url(#clipPath2)"/>
    </g>
    <g text-rendering="geometricPrecision" stroke-miterlimit="1.45" shape-rendering="geometricPrecision" transform="matrix(1,0,0,1,173,-124)" stroke-linecap="butt">
      <path fill="none" d="M681.8268 646.9789 L855.7748 646.9789 L841.4994 702.9608 L667.5514 702.9608 Z" clip-path="url(#clipPath2)"/>
      <text x="736.8999" font-size="15px" y="671.8058" clip-path="url(#clipPath2)" font-family="sans-serif" stroke="none" xml:space="preserve">P4Y3M</text>
      <text x="721.3542" font-size="15px" y="689.4719" clip-path="url(#clipPath2)" font-family="sans-serif" stroke="none" xml:space="preserve">(Timespan)</text>
    </g>
    <g fill="url(#linearGradient17)" text-rendering="geometricPrecision" shape-rendering="geometricPrecision" transform="matrix(1,0,0,1,173,-124)" stroke="url(#linearGradient17)">
      <path d="M954.9682 646.9789 L1128.9163 646.9789 L1114.6409 702.9608 L940.6929 702.9608 Z" stroke="none" clip-path="url(#clipPath2)"/>
    </g>
    <g text-rendering="geometricPrecision" stroke-miterlimit="1.45" shape-rendering="geometricPrecision" transform="matrix(1,0,0,1,173,-124)" stroke-linecap="butt">
      <path fill="none" d="M954.9682 646.9789 L1128.9163 646.9789 L1114.6409 702.9608 L940.6929 702.9608 Z" clip-path="url(#clipPath2)"/>
      <text x="1005.6761" font-size="15px" y="671.8058" clip-path="url(#clipPath2)" font-family="sans-serif" stroke="none" xml:space="preserve">Yes/No </text>
      <text x="958.5338" font-size="15px" y="689.4719" clip-path="url(#clipPath2)" font-family="sans-serif" stroke="none" xml:space="preserve">(Author Self Citation)</text>
    </g>
    <g fill="url(#linearGradient18)" text-rendering="geometricPrecision" shape-rendering="geometricPrecision" transform="matrix(1,0,0,1,173,-124)" stroke="url(#linearGradient18)">
      <path d="M1255.8879 646.9789 L1429.8359 646.9789 L1415.5605 702.9608 L1241.6125 702.9608 Z" stroke="none" clip-path="url(#clipPath2)"/>
    </g>
    <g text-rendering="geometricPrecision" stroke-miterlimit="1.45" shape-rendering="geometricPrecision" transform="matrix(1,0,0,1,173,-124)" stroke-linecap="butt">
      <path fill="none" d="M1255.8879 646.9789 L1429.8359 646.9789 L1415.5605 702.9608 L1241.6125 702.9608 Z" clip-path="url(#clipPath2)"/>
      <text x="1306.5958" font-size="15px" y="671.8058" clip-path="url(#clipPath2)" font-family="sans-serif" stroke="none" xml:space="preserve">Yes/No </text>
      <text x="1258.7906" font-size="15px" y="689.4719" clip-path="url(#clipPath2)" font-family="sans-serif" stroke="none" xml:space="preserve">(Journal Self Citation)</text>
    </g>
    <g stroke-linecap="butt" transform="matrix(1,0,0,1,173,-124)" fill="rgb(153,153,153)" text-rendering="geometricPrecision" shape-rendering="geometricPrecision" stroke-dasharray="12,4" stroke="rgb(153,153,153)" stroke-width="2" stroke-miterlimit="1.45">
      <path fill="none" d="M420.1767 139.1045 L1561.7196 139.1045 L1561.7196 420.8181 L420.1767 420.8181 Z" clip-path="url(#clipPath2)"/>
    </g>
    <g fill="url(#linearGradient19)" text-rendering="geometricPrecision" shape-rendering="geometricPrecision" transform="matrix(1,0,0,1,173,-124)" stroke="url(#linearGradient19)">
      <path d="M128.6358 954.4758 L307.9132 954.4758 L307.9132 1010.4576 L128.6358 1010.4576 Z" stroke="none" clip-path="url(#clipPath2)"/>
    </g>
    <g text-rendering="geometricPrecision" stroke-miterlimit="1.45" shape-rendering="geometricPrecision" transform="matrix(1,0,0,1,173,-124)" stroke-linecap="butt">
      <path fill="none" d="M128.6358 954.4758 L307.9132 954.4758 L307.9132 1010.4576 L128.6358 1010.4576 Z" clip-path="url(#clipPath2)"/>
      <text x="145.0421" font-size="20px" y="990.0253" clip-path="url(#clipPath2)" font-family="sans-serif" stroke="none" xml:space="preserve">Convert to RDF</text>
    </g>
    <g fill="url(#linearGradient20)" text-rendering="geometricPrecision" shape-rendering="geometricPrecision" transform="matrix(1,0,0,1,173,-124)" stroke="url(#linearGradient20)">
      <path d="M360.9542 954.4758 L534.9022 954.4758 L520.6268 1010.4576 L346.6788 1010.4576 Z" stroke="none" clip-path="url(#clipPath2)"/>
    </g>
    <g text-rendering="geometricPrecision" stroke-miterlimit="1.45" shape-rendering="geometricPrecision" transform="matrix(1,0,0,1,173,-124)" stroke-linecap="butt">
      <path fill="none" d="M360.9542 954.4758 L534.9022 954.4758 L520.6268 1010.4576 L346.6788 1010.4576 Z" clip-path="url(#clipPath2)"/>
      <text x="393.8921" font-size="18px" y="978.6699" clip-path="url(#clipPath2)" font-family="sans-serif" stroke="none" xml:space="preserve">Dataset in </text>
      <text x="365.4683" font-size="18px" y="999.8691" clip-path="url(#clipPath2)" font-family="sans-serif" stroke="none" xml:space="preserve">N-Triples Format</text>
    </g>
    <g fill="url(#linearGradient21)" text-rendering="geometricPrecision" shape-rendering="geometricPrecision" transform="matrix(1,0,0,1,173,-124)" stroke="url(#linearGradient21)">
      <path d="M801.98 954.4758 L1002.3607 954.4758 L1002.3607 1010.4576 L801.98 1010.4576 Z" stroke="none" clip-path="url(#clipPath2)"/>
    </g>
    <g text-rendering="geometricPrecision" stroke-miterlimit="1.45" shape-rendering="geometricPrecision" transform="matrix(1,0,0,1,173,-124)" stroke-linecap="butt">
      <path fill="none" d="M801.98 954.4758 L1002.3607 954.4758 L1002.3607 1010.4576 L801.98 1010.4576 Z" clip-path="url(#clipPath2)"/>
      <text x="814.5336" font-size="20px" y="990.0253" clip-path="url(#clipPath2)" font-family="sans-serif" stroke="none" xml:space="preserve">Update triplestore</text>
    </g>
    <g fill="url(#linearGradient22)" text-rendering="geometricPrecision" shape-rendering="geometricPrecision" transform="matrix(1,0,0,1,173,-124)" stroke="url(#linearGradient22)">
      <circle r="33.9182" clip-path="url(#clipPath2)" cx="63.1153" cy="227.7331" stroke="none"/>
    </g>
    <g text-rendering="geometricPrecision" stroke-miterlimit="1.45" shape-rendering="geometricPrecision" transform="matrix(1,0,0,1,173,-124)" stroke-linecap="butt">
      <circle fill="none" r="33.9182" clip-path="url(#clipPath2)" cx="63.1153" cy="227.7331"/>
      <text x="38.3868" font-size="22px" y="236.0475" clip-path="url(#clipPath2)" font-family="sans-serif" stroke="none" xml:space="preserve">Start</text>
    </g>
    <g fill="url(#linearGradient23)" text-rendering="geometricPrecision" shape-rendering="geometricPrecision" transform="matrix(1,0,0,1,173,-124)" stroke="url(#linearGradient23)">
      <path d="M1109.512 947.3474 C1116.0958 923.9346 1322.3914 923.9346 1328.9753 947.3474 L1328.9753 1017.586 C1322.3914 1040.9989 1116.0958 1040.9989 1109.512 1017.586 Z" stroke="none" clip-path="url(#clipPath2)"/>
    </g>
    <g text-rendering="geometricPrecision" stroke-miterlimit="1.45" shape-rendering="geometricPrecision" transform="matrix(1,0,0,1,173,-124)" stroke-linecap="butt">
      <path fill="none" d="M1109.512 947.3474 C1116.0958 923.9346 1322.3914 923.9346 1328.9753 947.3474 L1328.9753 1017.586 C1322.3914 1040.9989 1116.0958 1040.9989 1109.512 1017.586 Z" clip-path="url(#clipPath2)"/>
      <path fill="none" d="M1328.9753 947.3474 C1322.3914 970.7603 1116.0958 970.7603 1109.512 947.3474" clip-path="url(#clipPath2)"/>
      <text x="1139.875" font-size="22px" y="988.3458" clip-path="url(#clipPath2)" font-family="sans-serif" stroke="none" xml:space="preserve">OpenCitations </text>
      <text x="1119.0996" font-size="22px" y="1014.256" clip-path="url(#clipPath2)" font-family="sans-serif" stroke="none" xml:space="preserve">Indexes triplestore</text>
    </g>
    <g font-size="22px" stroke-linecap="butt" transform="matrix(1,0,0,1,173,-124)" text-rendering="geometricPrecision" font-family="sans-serif" shape-rendering="geometricPrecision" stroke-miterlimit="1.45">
      <text x="1366.5665" xml:space="preserve" y="172.8221" clip-path="url(#clipPath2)" stroke="none">Phase 1</text>
      <text x="1339.9313" xml:space="preserve" y="198.7323" clip-path="url(#clipPath2)" stroke="none">(Global data </text>
      <text x="1346.7472" xml:space="preserve" y="224.6424" clip-path="url(#clipPath2)" stroke="none">generation)</text>
    </g>
    <g font-size="22px" stroke-linecap="butt" transform="matrix(1,0,0,1,173,-124)" text-rendering="geometricPrecision" font-family="sans-serif" shape-rendering="geometricPrecision" stroke-miterlimit="1.45">
      <text x="-96.0071" xml:space="preserve" y="489.5403" clip-path="url(#clipPath2)" stroke="none">Phase 2</text>
      <text x="-143.6111" xml:space="preserve" y="515.4504" clip-path="url(#clipPath2)" stroke="none">(CSV generation)</text>
    </g>
    <g font-size="22px" stroke-linecap="butt" transform="matrix(1,0,0,1,173,-124)" text-rendering="geometricPrecision" font-family="sans-serif" shape-rendering="geometricPrecision" stroke-miterlimit="1.45">
      <text x="-75.266" xml:space="preserve" y="1046.1809" clip-path="url(#clipPath2)" stroke="none">Phase 3</text>
      <text x="-148.6943" xml:space="preserve" y="1072.0911" clip-path="url(#clipPath2)" stroke="none">(Converting into RDF)</text>
    </g>
    <g font-size="22px" stroke-linecap="butt" transform="matrix(1,0,0,1,173,-124)" text-rendering="geometricPrecision" font-family="sans-serif" shape-rendering="geometricPrecision" stroke-miterlimit="1.45">
      <text x="695.6298" xml:space="preserve" y="1047.9302" clip-path="url(#clipPath2)" stroke="none">Phase 4</text>
      <text x="601.9418" xml:space="preserve" y="1073.8403" clip-path="url(#clipPath2)" stroke="none">(Updating the triplestore)</text>
    </g>
    <g text-rendering="geometricPrecision" stroke-miterlimit="1.45" shape-rendering="geometricPrecision" transform="matrix(1,0,0,1,173,-124)" stroke-linecap="butt">
      <path fill="none" d="M299.9628 537.0424 L299.9628 638.9871" clip-path="url(#clipPath2)"/>
      <path d="M299.9628 646.9871 L304.9628 634.9871 L299.9628 637.9871 L294.9628 634.9871 Z" clip-path="url(#clipPath2)" stroke="none"/>
      <path fill="none" d="M531.8033 537.0424 L531.8033 638.9871" clip-path="url(#clipPath2)"/>
      <path d="M531.8033 646.9871 L536.8033 634.9871 L531.8033 637.9871 L526.8033 634.9871 Z" clip-path="url(#clipPath2)" stroke="none"/>
      <path fill="none" d="M761.6631 537.0424 L761.6631 638.9871" clip-path="url(#clipPath2)"/>
      <path d="M761.6631 646.9871 L766.6631 634.9871 L761.6631 637.9871 L756.6631 634.9871 Z" clip-path="url(#clipPath2)" stroke="none"/>
      <path fill="none" d="M1034.8046 537.0424 L1034.8046 638.9871" clip-path="url(#clipPath2)"/>
      <path d="M1034.8046 646.9871 L1039.8046 634.9871 L1034.8046 637.9871 L1029.8046 634.9871 Z" clip-path="url(#clipPath2)" stroke="none"/>
      <path fill="none" d="M1335.7242 537.0424 L1335.7242 638.9871" clip-path="url(#clipPath2)"/>
      <path d="M1335.7242 646.9871 L1340.7242 634.9871 L1335.7242 637.9871 L1330.7242 634.9871 Z" clip-path="url(#clipPath2)" stroke="none"/>
      <path fill="none" d="M-48.14 728.0712 L-48.14 843.4644 L-48.14 982.4667 L-28.1234 982.4667 L120.6124 982.4667" clip-path="url(#clipPath2)"/>
      <path d="M128.6124 982.4667 L116.6124 977.4667 L119.6124 982.4667 L116.6124 987.4667 Z" clip-path="url(#clipPath2)" stroke="none"/>
      <path fill="none" d="M307.9382 982.4667 L345.8333 982.4667" clip-path="url(#clipPath2)"/>
      <path d="M353.8333 982.4667 L341.8333 977.4667 L344.8333 982.4667 L341.8333 987.4667 Z" clip-path="url(#clipPath2)" stroke="none"/>
      <path fill="none" d="M527.778 982.4667 L793.9454 982.4667" clip-path="url(#clipPath2)"/>
      <path d="M801.9454 982.4667 L789.9454 977.4667 L792.9454 982.4667 L789.9454 987.4667 Z" clip-path="url(#clipPath2)" stroke="none"/>
      <path fill="none" d="M97.0347 226.9099 L551.5331 215.88" clip-path="url(#clipPath2)"/>
      <path d="M559.5307 215.6859 L547.4129 210.9785 L550.5333 215.9043 L547.6555 220.9756 Z" clip-path="url(#clipPath2)" stroke="none"/>
      <path fill="none" d="M1002.3782 982.4667 L1101.5137 982.4667" clip-path="url(#clipPath2)"/>
      <path d="M1109.5137 982.4667 L1097.5137 977.4667 L1100.5137 982.4667 L1097.5137 987.4667 Z" clip-path="url(#clipPath2)" stroke="none"/>
    </g>
    <g fill="rgb(245,245,245)" text-rendering="geometricPrecision" shape-rendering="geometricPrecision" transform="matrix(1,0,0,1,173,-124)" stroke="rgb(245,245,245)">
      <rect x="481.9047" y="743.8421" clip-path="url(#clipPath2)" width="991.8189" rx="4" ry="4" height="126.5865" stroke="none"/>
      <rect x="481.9047" y="743.8421" clip-path="url(#clipPath2)" fill="rgb(153,204,255)" width="991.8189" height="29.9102" stroke="none"/>
    </g>
    <g font-size="22px" stroke-linecap="butt" transform="matrix(1,0,0,1,173,-124)" text-rendering="geometricPrecision" font-family="sans-serif" shape-rendering="geometricPrecision" stroke-miterlimit="1.45">
      <text x="483.9047" xml:space="preserve" y="767.1116" clip-path="url(#clipPath2)" stroke="none">   Provenance dataset in CSV</text>
      <rect x="481.9047" y="743.8421" clip-path="url(#clipPath2)" fill="none" width="991.8189" stroke-dasharray="6,2" rx="4" ry="4" height="126.5865"/>
    </g>
    <g fill="url(#linearGradient24)" text-rendering="geometricPrecision" shape-rendering="geometricPrecision" transform="matrix(1,0,0,1,173,-124)" stroke="url(#linearGradient24)">
      <path d="M777.9671 793.7604 L951.9152 793.7604 L937.6398 849.7423 L763.6918 849.7423 Z" stroke="none" clip-path="url(#clipPath2)"/>
    </g>
    <g text-rendering="geometricPrecision" stroke-miterlimit="1.45" shape-rendering="geometricPrecision" transform="matrix(1,0,0,1,173,-124)" stroke-linecap="butt">
      <path fill="none" d="M777.9671 793.7604 L951.9152 793.7604 L937.6398 849.7423 L763.6918 849.7423 Z" clip-path="url(#clipPath2)"/>
      <text x="814.4551" font-size="15px" y="818.5873" clip-path="url(#clipPath2)" font-family="sans-serif" stroke="none" xml:space="preserve">COCI-Script</text>
      <text x="831.4363" font-size="15px" y="836.2534" clip-path="url(#clipPath2)" font-family="sans-serif" stroke="none" xml:space="preserve">(Agent)</text>
    </g>
    <g fill="url(#linearGradient25)" text-rendering="geometricPrecision" shape-rendering="geometricPrecision" transform="matrix(1,0,0,1,173,-124)" stroke="url(#linearGradient25)">
      <path d="M996.1905 793.7604 L1214.0662 793.7604 L1199.7908 849.7423 L981.9152 849.7423 Z" stroke="none" clip-path="url(#clipPath2)"/>
    </g>
    <g text-rendering="geometricPrecision" stroke-miterlimit="1.45" shape-rendering="geometricPrecision" transform="matrix(1,0,0,1,173,-124)" stroke-linecap="butt">
      <path fill="none" d="M996.1905 793.7604 L1214.0662 793.7604 L1199.7908 849.7423 L981.9152 849.7423 Z" clip-path="url(#clipPath2)"/>
      <text x="1002.1533" font-size="15px" y="818.5873" clip-path="url(#clipPath2)" font-family="sans-serif" stroke="none" xml:space="preserve">https://api.crossref.org ...</text>
      <text x="1068.7231" font-size="15px" y="836.2534" clip-path="url(#clipPath2)" font-family="sans-serif" stroke="none" xml:space="preserve">(Source)</text>
    </g>
    <g fill="url(#linearGradient26)" text-rendering="geometricPrecision" shape-rendering="geometricPrecision" transform="matrix(1,0,0,1,173,-124)" stroke="url(#linearGradient26)">
      <path d="M1253.5355 793.7604 L1458.7235 793.7604 L1444.4481 849.7423 L1239.2601 849.7423 Z" stroke="none" clip-path="url(#clipPath2)"/>
    </g>
    <g text-rendering="geometricPrecision" stroke-miterlimit="1.45" shape-rendering="geometricPrecision" transform="matrix(1,0,0,1,173,-124)" stroke-linecap="butt">
      <path fill="none" d="M1253.5355 793.7604 L1458.7235 793.7604 L1444.4481 849.7423 L1239.2601 849.7423 Z" clip-path="url(#clipPath2)"/>
      <text x="1257.1644" font-size="15px" y="818.5873" clip-path="url(#clipPath2)" font-family="sans-serif" stroke="none" xml:space="preserve">2018-XX-YYTHH-MM-SS</text>
      <text x="1311.2172" font-size="15px" y="836.2534" clip-path="url(#clipPath2)" font-family="sans-serif" stroke="none" xml:space="preserve">(Datetime)</text>
    </g>
    <g fill="url(#linearGradient27)" text-rendering="geometricPrecision" shape-rendering="geometricPrecision" transform="matrix(1,0,0,1,173,-124)" stroke="url(#linearGradient27)">
      <path d="M559.7437 793.7604 L733.6918 793.7604 L719.4164 849.7423 L545.4684 849.7423 Z" stroke="none" clip-path="url(#clipPath2)"/>
    </g>
    <g text-rendering="geometricPrecision" stroke-miterlimit="1.45" shape-rendering="geometricPrecision" transform="matrix(1,0,0,1,173,-124)" stroke-linecap="butt">
      <path fill="none" d="M559.7437 793.7604 L733.6918 793.7604 L719.4164 849.7423 L545.4684 849.7423 Z" clip-path="url(#clipPath2)"/>
      <text x="564.093" font-size="15px" y="818.5873" clip-path="url(#clipPath2)" font-family="sans-serif" stroke="none" xml:space="preserve">020123...-020321...</text>
      <text x="621.5259" font-size="15px" y="836.2534" clip-path="url(#clipPath2)" font-family="sans-serif" stroke="none" xml:space="preserve">(OCI)</text>
    </g>
    <g text-rendering="geometricPrecision" stroke-miterlimit="1.45" shape-rendering="geometricPrecision" transform="matrix(1,0,0,1,173,-124)" stroke-linecap="butt">
      <path fill="none" d="M1473.7349 509.0518 L1542.6012 509.0518 L1542.6012 807.1353 L1481.6949 807.1353" clip-path="url(#clipPath2)"/>
      <path d="M1473.6949 807.1353 L1485.6949 812.1353 L1482.6949 807.1353 L1485.6949 802.1353 Z" clip-path="url(#clipPath2)" stroke="none"/>
      <path fill="none" d="M481.9211 814.0206 L233.4527 814.0206 L233.4527 946.4719" clip-path="url(#clipPath2)"/>
      <path d="M233.4527 954.4719 L238.4527 942.4719 L233.4527 945.4719 L228.4527 942.4719 Z" clip-path="url(#clipPath2)" stroke="none"/>
    </g>
  </g>
</svg>
